<svg width="20" height="20" viewBox="0 0 20 20" fill="none" xmlns="http://www.w3.org/2000/svg">
<path d="M12.9946 14.6422C9.06517 14.6422 5.86826 11.336 5.86719 7.27347C5.86826 6.24367 6.67933 5.40625 7.67325 5.40625C7.77544 5.40625 7.87654 5.41515 7.97335 5.43294C8.18633 5.46964 8.38857 5.54415 8.57466 5.65647C8.60155 5.67315 8.61984 5.69985 8.62414 5.73099L9.03935 8.43672C9.04473 8.46786 9.03505 8.50011 9.01461 8.52347C8.78549 8.78592 8.49291 8.97498 8.16698 9.06951L8.00993 9.11511L8.06909 9.27191C8.60477 10.6821 9.69551 11.8086 11.0605 12.3647L11.2122 12.4269L11.2563 12.2646C11.3477 11.9276 11.5306 11.6251 11.7845 11.3882C11.8028 11.3704 11.8275 11.3615 11.8522 11.3615C11.8576 11.3615 11.863 11.3615 11.8694 11.3627L14.4866 11.7919C14.5178 11.7975 14.5436 11.8153 14.5597 11.8431C14.6673 12.0355 14.7393 12.2457 14.7759 12.4659C14.7931 12.5637 14.8007 12.6671 14.8007 12.775C14.8007 13.8037 13.9907 14.6411 12.9946 14.6422Z" fill="white"/>
<path d="M19.9624 9.1081C19.7504 6.63256 18.6533 4.33608 16.873 2.64235C15.082 0.938613 12.7586 0 10.3286 0C4.99543 0 0.656171 4.48621 0.656171 10C0.656171 11.8505 1.1499 13.6532 2.08466 15.2235L0 19.9944L6.67456 19.2593C7.83521 19.7509 9.06362 20 10.3275 20C10.6599 20 11.0009 19.9822 11.343 19.9455C11.6442 19.9121 11.9486 19.8632 12.2476 19.8009C16.7138 18.8679 19.9742 14.7698 20 10.0534V10C20 9.69973 19.9871 9.39946 19.9613 9.1092L19.9624 9.1081ZM6.93165 17.1653L3.23886 17.5723L4.34143 15.0467L4.12091 14.7409C4.10478 14.7186 4.08864 14.6964 4.07036 14.6708C3.11301 13.304 2.60743 11.6893 2.60743 10.0011C2.60743 5.59942 6.0711 2.01846 10.3286 2.01846C14.3172 2.01846 17.6981 5.23577 18.024 9.34275C18.0412 9.56294 18.0509 9.78425 18.0509 10.0022C18.0509 10.0645 18.0498 10.1257 18.0487 10.1913C17.967 13.8734 15.4789 17.0007 11.9981 17.7969C11.7324 17.8581 11.4602 17.9048 11.1892 17.9348C10.9073 17.9682 10.618 17.9849 10.3308 17.9849C9.30781 17.9849 8.31389 17.7802 7.37482 17.3754C7.27048 17.3321 7.16829 17.2854 7.07255 17.2375L6.93272 17.1675L6.93165 17.1653Z" fill="white"/>
</svg>
