<svg width="20" height="20" viewBox="0 0 20 20" fill="none" xmlns="http://www.w3.org/2000/svg">
<path fill-rule="evenodd" clip-rule="evenodd" d="M19.5999 10.2271C19.5999 9.51799 19.5363 8.83618 19.4181 8.18164H10V12.0498H15.3818C15.15 13.2998 14.4454 14.3589 13.3863 15.068V17.577H16.6181C18.509 15.8361 19.5999 13.2725 19.5999 10.2271Z" fill="white"/>
<path fill-rule="evenodd" clip-rule="evenodd" d="M9.9988 20.0003C12.6988 20.0003 14.9624 19.1049 16.6169 17.5776L13.3851 15.0685C12.4897 15.6685 11.3442 16.0231 9.9988 16.0231C7.39427 16.0231 5.18974 14.264 4.40338 11.9004H1.0625V14.4913C2.70794 17.7594 6.08974 20.0003 9.9988 20.0003Z" fill="white"/>
<path fill-rule="evenodd" clip-rule="evenodd" d="M4.40451 11.8987C4.20452 11.2987 4.09088 10.6578 4.09088 9.99869C4.09088 9.3396 4.20452 8.6987 4.40451 8.0987V5.50781H1.06363C0.386361 6.8578 0 8.38506 0 9.99869C0 11.6123 0.386361 13.1396 1.06363 14.4896L4.40451 11.8987Z" fill="white"/>
<path fill-rule="evenodd" clip-rule="evenodd" d="M9.9988 3.97724C11.467 3.97724 12.7851 4.48179 13.8215 5.47269L16.6897 2.60453C14.9579 0.990902 12.6942 0 9.9988 0C6.08974 0 2.70794 2.24089 1.0625 5.50905L4.40338 8.09994C5.18974 5.73632 7.39427 3.97724 9.9988 3.97724Z" fill="white"/>
</svg>
