<svg width="20" height="16" viewBox="0 0 20 16" fill="none" xmlns="http://www.w3.org/2000/svg">
<path d="M0.525445 7.2935C0.571374 7.2713 0.617325 7.25021 0.662107 7.23023C1.44061 6.88169 2.22946 6.55536 3.01715 6.22902C3.05963 6.22902 3.13081 6.18129 3.17099 6.16575C3.23185 6.14022 3.29272 6.1158 3.35358 6.09027C3.4707 6.04143 3.58782 5.9937 3.70379 5.94486C3.93804 5.84829 4.17111 5.75171 4.40535 5.65514L5.80735 5.07462C6.74202 4.68834 7.67786 4.30095 8.61252 3.91467C9.54719 3.52839 10.483 3.141 11.4177 2.75472C12.3523 2.36844 13.2881 1.98106 14.2228 1.59478C15.1575 1.2085 16.0933 0.821113 17.028 0.434834C17.2358 0.348254 17.4609 0.219491 17.6836 0.181752C17.8708 0.149562 18.0533 0.0874049 18.2417 0.052995C18.5988 -0.0124948 18.9926 -0.0391323 19.3348 0.104057C19.453 0.154007 19.5621 0.223936 19.6528 0.311626C20.0869 0.726765 20.026 1.4083 19.9342 1.99216C19.2946 6.0614 18.655 10.1318 18.0143 14.201C17.927 14.7593 17.8076 15.3721 17.3518 15.725C16.966 16.0236 16.4171 16.0569 15.9406 15.9304C15.4641 15.8027 15.0438 15.5352 14.6316 15.2722C12.9219 14.1777 11.211 13.0832 9.50126 11.9888C9.09478 11.729 8.64238 11.3894 8.64698 10.9176C8.64927 10.6335 8.82494 10.3804 9.00406 10.1551C10.4899 8.2814 12.6337 6.9938 14.2286 5.20671C14.4536 4.95474 14.6304 4.49964 14.3216 4.35423C14.1379 4.26765 13.9266 4.38531 13.7589 4.49742C11.6507 5.91266 9.54375 7.32902 7.43558 8.74427C6.74778 9.20603 6.02669 9.68111 5.19766 9.79432C4.45589 9.89645 3.70954 9.69664 2.99189 9.4924C2.39021 9.32146 1.78966 9.14608 1.19143 8.96515C0.873367 8.86969 0.544968 8.76647 0.299245 8.55002C0.0535211 8.33357 -0.0876934 7.96949 0.0604296 7.68089C0.153437 7.49996 0.333714 7.38563 0.523174 7.29239L0.525445 7.2935Z" fill="white"/>
</svg>
