<svg width="20" height="13" viewBox="0 0 20 13" fill="none" xmlns="http://www.w3.org/2000/svg">
<path d="M19.9472 0.9022C19.9856 0.771334 20.0039 0.65 19.9989 0.541667C19.9864 0.227933 19.7789 0 19.2906 0H17.1089C16.5581 0 16.3039 0.346667 16.1556 0.694201C16.1556 0.694201 14.7956 3.60533 13.2282 5.525C12.7198 6.08053 12.4615 6.06667 12.1865 6.06667C12.039 6.06667 11.6665 5.8812 11.6665 5.37247V0.8788C11.6665 0.277333 11.5223 0 11.0565 0H7.1824C6.84324 0 6.66658 0.277334 6.66658 0.555534C6.66658 1.1336 7.4149 1.27227 7.4999 2.89207V6.032C7.4999 6.79467 7.3724 6.93333 7.09741 6.93333C6.35575 6.93333 4.89577 4.33333 3.91828 0.925601C3.70662 0.254801 3.49495 0 2.94413 0H0.741657C0.105832 0 0 0.324133 0 0.6708C0 1.29567 0.499993 4.67393 3.22912 8.55833C5.20826 11.375 7.81573 13 10.124 13C11.5223 13 11.6657 12.6299 11.6657 12.0519V9.47613C11.6665 8.78193 11.819 8.66667 12.264 8.66667C12.5815 8.66667 13.229 8.88333 14.479 10.4C15.9206 12.1489 16.1823 13 17.0089 13H19.1906C19.6972 13 19.9881 12.779 19.9997 12.35C20.0022 12.2408 19.9872 12.1186 19.9531 11.9825C19.7914 11.4833 19.0497 10.2631 18.1248 9.1C17.6123 8.45607 17.1064 7.8182 16.8739 7.47153C16.7181 7.24533 16.6589 7.08587 16.6664 6.93333C16.6739 6.773 16.7539 6.62047 16.8739 6.40727C16.8523 6.40727 19.6722 2.28973 19.9472 0.9022Z" fill="white"/>
</svg>
